# Blender v3.2.1 OBJ File: 'hoobithouse1.blend'
# www.blender.org
mtllib laje.mtl
o laje_Cylinder
v 0.000000 7.956200 -10.155504
v -0.000000 7.956199 5.752788
v 1.551777 7.803363 -10.155504
v 1.551777 7.803362 5.752788
v 3.043920 7.350726 -10.155504
v 3.043920 7.350725 5.752788
v 4.419087 6.615685 -10.155504
v 4.419087 6.615684 5.752788
v 5.624430 5.626484 -10.155504
v 5.624430 5.626483 5.752788
v 6.613630 4.421141 -10.155505
v 6.613630 4.421140 5.752787
v 7.348672 3.045974 -10.155505
v 7.348672 3.045973 5.752787
v 7.801309 1.553831 -10.155505
v 7.801309 1.553830 5.752787
v -7.954146 0.002054 -10.155505
v -7.954146 0.002053 5.752787
v -7.801309 1.553831 -10.155505
v -7.801309 1.553831 5.752787
v -7.348672 3.045975 -10.155505
v -7.348672 3.045974 5.752787
v -6.613631 4.421140 -10.155505
v -6.613631 4.421139 5.752787
v -5.624431 5.626484 -10.155504
v -5.624431 5.626483 5.752788
v -4.419087 6.615685 -10.155504
v -4.419087 6.615684 5.752788
v -3.043920 7.350727 -10.155504
v -3.043920 7.350726 5.752788
v -1.551776 7.803364 -10.155504
v -1.551776 7.803363 5.752788
v -5.983696 4.000229 5.752787
v -3.998178 5.985747 5.752788
v -5.088715 5.090767 5.752787
v -1.403973 7.060303 5.752788
v -2.753992 6.650779 5.752788
v 1.403973 7.060302 5.752788
v -0.000000 7.198582 5.752788
v -7.196528 0.002053 5.752787
v -7.058249 1.406027 5.752787
v 3.998177 5.985747 5.752788
v 5.983695 4.000231 5.752787
v 5.088714 5.090767 5.752787
v 7.058249 1.406026 5.752787
v 6.648725 2.756045 5.752787
v -6.648725 2.756047 5.752787
v 2.753992 6.650778 5.752788
v 0.000000 7.198583 -10.155504
v 2.753992 6.650779 -10.155504
v 1.403973 7.060303 -10.155504
v 5.088714 5.090768 -10.155505
v 5.983695 4.000231 -10.155505
v 6.648725 2.756046 -10.155505
v 3.998177 5.985748 -10.155504
v -7.196528 0.002054 -10.155505
v -6.648725 2.756047 -10.155505
v -7.058249 1.406028 -10.155505
v -5.088715 5.090768 -10.155505
v -2.753992 6.650780 -10.155504
v -3.998178 5.985748 -10.155504
v -5.983696 4.000230 -10.155505
v 7.058249 1.406027 -10.155505
v -1.403973 7.060304 -10.155504
v 7.954146 0.002053 5.752787
v 7.954146 0.002054 -10.155505
v -7.954146 0.002053 5.752787
v -7.954146 0.002054 -10.155505
v 7.196528 0.002053 5.752787
v 7.196528 0.002054 -10.155505
v -7.196528 0.002053 5.752787
v -7.196528 0.002054 -10.155505
vt 1.000000 0.500000
vt 1.000000 1.000000
vt 0.968750 1.000000
vt 0.968750 0.500000
vt 0.937500 1.000000
vt 0.937500 0.500000
vt 0.906250 1.000000
vt 0.906250 0.500000
vt 0.875000 1.000000
vt 0.875000 0.500000
vt 0.843750 1.000000
vt 0.843750 0.500000
vt 0.812500 1.000000
vt 0.812500 0.500000
vt 0.781250 1.000000
vt 0.781250 0.500000
vt 0.750000 0.500000
vt 0.750000 1.000000
vt 0.250000 1.000000
vt 0.250000 0.500000
vt 0.250000 0.500000
vt 0.250000 1.000000
vt 0.218750 1.000000
vt 0.218750 0.500000
vt 0.187500 1.000000
vt 0.187500 0.500000
vt 0.156250 1.000000
vt 0.156250 0.500000
vt 0.125000 1.000000
vt 0.125000 0.500000
vt 0.093750 1.000000
vt 0.093750 0.500000
vt 0.062500 1.000000
vt 0.062500 0.500000
vt 0.485388 0.296822
vt 0.471731 0.341844
vt 0.449553 0.383337
vt 0.419706 0.419706
vt 0.383337 0.449553
vt 0.341844 0.471731
vt 0.333096 0.450612
vt 0.370637 0.430546
vt 0.403541 0.403541
vt 0.430546 0.370637
vt 0.450612 0.333096
vt 0.462968 0.292362
vt 0.467140 0.250000
vt 0.490000 0.250000
vt 0.032860 0.250000
vt 0.032860 0.250000
vt 0.037032 0.292362
vt 0.049388 0.333096
vt 0.069454 0.370637
vt 0.096458 0.403541
vt 0.129363 0.430546
vt 0.166904 0.450612
vt 0.207638 0.462968
vt 0.250000 0.467140
vt 0.292362 0.462968
vt 0.296822 0.485388
vt 0.250000 0.490000
vt 0.203178 0.485388
vt 0.158156 0.471731
vt 0.116663 0.449553
vt 0.080294 0.419706
vt 0.050447 0.383337
vt 0.028269 0.341844
vt 0.014612 0.296822
vt 0.010000 0.250000
vt 0.010000 0.250000
vt 0.031250 1.000000
vt 0.031250 0.500000
vt 0.000000 1.000000
vt 0.000000 0.500000
vt 0.510000 0.250000
vt 0.510000 0.250000
vt 0.514612 0.296822
vt 0.528269 0.341844
vt 0.550447 0.383337
vt 0.580294 0.419706
vt 0.616663 0.449553
vt 0.658156 0.471731
vt 0.703178 0.485388
vt 0.707638 0.462968
vt 0.666904 0.450612
vt 0.629363 0.430546
vt 0.596459 0.403541
vt 0.569454 0.370637
vt 0.549388 0.333096
vt 0.537032 0.292362
vt 0.532860 0.250000
vt 0.532860 0.250000
vt 0.750000 0.467140
vt 0.750000 0.490000
vt 0.796822 0.485388
vt 0.841844 0.471731
vt 0.883337 0.449553
vt 0.919706 0.419706
vt 0.949553 0.383337
vt 0.971731 0.341844
vt 0.985388 0.296822
vt 0.990000 0.250000
vt 0.967141 0.250000
vt 0.962968 0.292362
vt 0.950612 0.333096
vt 0.930546 0.370637
vt 0.903541 0.403541
vt 0.870637 0.430546
vt 0.833096 0.450612
vt 0.792362 0.462968
vt 0.968750 0.501133
vt 0.968750 0.998867
vt 1.000000 0.998867
vt 1.000000 0.501133
vt 0.937500 0.501133
vt 0.937500 0.998867
vt 0.906250 0.501133
vt 0.906250 0.998867
vt 0.875000 0.501133
vt 0.875000 0.998867
vt 0.843750 0.998867
vt 0.843750 0.501133
vt 0.812500 0.998867
vt 0.812500 0.501133
vt 0.781250 0.998867
vt 0.781250 0.501133
vt 0.750000 0.501133
vt 0.750000 0.998867
vt 0.250000 0.501133
vt 0.250000 0.501133
vt 0.250000 0.998867
vt 0.250000 0.998867
vt 0.218750 0.501133
vt 0.218750 0.998867
vt 0.187500 0.501133
vt 0.187500 0.998867
vt 0.156250 0.501133
vt 0.156250 0.998867
vt 0.125000 0.501133
vt 0.125000 0.998867
vt 0.093750 0.501133
vt 0.093750 0.998867
vt 0.062500 0.501133
vt 0.062500 0.998867
vt 0.031250 0.501133
vt 0.031250 0.998867
vt 0.000000 0.501133
vt 0.000000 0.998867
vt 0.875000 0.500000
vt 0.875000 0.500000
vt 0.863094 0.500000
vt 0.863094 0.500000
vt 0.636906 0.500000
vt 0.636906 0.500000
vt 0.625000 0.750000
vt 0.625000 0.750000
vn 0.0980 0.9952 0.0000
vn 0.2903 0.9569 0.0000
vn 0.4714 0.8819 0.0000
vn 0.6344 0.7730 0.0000
vn 0.7730 0.6344 0.0000
vn 0.8819 0.4714 0.0000
vn 0.9569 0.2903 0.0000
vn 0.9952 0.0980 0.0000
vn -1.0000 0.0000 0.0000
vn -0.9952 0.0980 0.0000
vn -0.9569 0.2903 0.0000
vn -0.8819 0.4714 0.0000
vn -0.7730 0.6344 0.0000
vn -0.6344 0.7730 0.0000
vn -0.4714 0.8819 0.0000
vn 0.0000 -0.0000 1.0000
vn -0.2903 0.9569 0.0000
vn -0.0980 0.9952 0.0000
vn 0.0000 0.0000 -1.0000
vn -0.0980 -0.9952 -0.0000
vn -0.2903 -0.9569 -0.0000
vn -0.4714 -0.8819 -0.0000
vn -0.6344 -0.7730 -0.0000
vn -0.7730 -0.6344 -0.0000
vn -0.8819 -0.4714 0.0000
vn -0.9569 -0.2903 -0.0000
vn -0.9952 -0.0980 -0.0000
vn 1.0000 0.0000 0.0000
vn 0.9952 -0.0980 -0.0000
vn 0.9569 -0.2903 -0.0000
vn 0.8819 -0.4714 -0.0000
vn 0.7730 -0.6344 -0.0000
vn 0.6344 -0.7730 -0.0000
vn 0.4714 -0.8819 -0.0000
vn 0.2903 -0.9569 -0.0000
vn 0.0980 -0.9952 -0.0000
vn 0.0000 -1.0000 -0.0000
usemtl (null)
s off
f 1/1/1 2/2/1 4/3/1 3/4/1
f 3/4/2 4/3/2 6/5/2 5/6/2
f 5/6/3 6/5/3 8/7/3 7/8/3
f 7/8/4 8/7/4 10/9/4 9/10/4
f 9/10/5 10/9/5 12/11/5 11/12/5
f 11/12/6 12/11/6 14/13/6 13/14/6
f 13/14/7 14/13/7 16/15/7 15/16/7
f 66/17/8 15/16/8 16/15/8 65/18/8
f 18/19/9 17/20/9 68/21/9 67/22/9
f 17/20/10 18/19/10 20/23/10 19/24/10
f 19/24/11 20/23/11 22/25/11 21/26/11
f 21/26/12 22/25/12 24/27/12 23/28/12
f 23/28/13 24/27/13 26/29/13 25/30/13
f 25/30/14 26/29/14 28/31/14 27/32/14
f 27/32/15 28/31/15 30/33/15 29/34/15
f 16/35/16 14/36/16 12/37/16 10/38/16 8/39/16 6/40/16 48/41/16 42/42/16 44/43/16 43/44/16 46/45/16 45/46/16 69/47/16 65/48/16
f 71/49/16 40/50/16 41/51/16 47/52/16 33/53/16 35/54/16 34/55/16 37/56/16 36/57/16 39/58/16 38/59/16 48/41/16 6/40/16 4/60/16 2/61/16 32/62/16 30/63/16 28/64/16 26/65/16 24/66/16 22/67/16 20/68/16 18/69/16 67/70/16
f 29/34/17 30/33/17 32/71/17 31/72/17
f 31/72/18 32/71/18 2/73/18 1/74/18
f 68/75/19 17/76/19 19/77/19 21/78/19 23/79/19 25/80/19 27/81/19 29/82/19 31/83/19 64/84/19 60/85/19 61/86/19 59/87/19 62/88/19 57/89/19 58/90/19 56/91/19 72/92/19
f 49/93/19 64/84/19 31/83/19 1/94/19 3/95/19 5/96/19 7/97/19 9/98/19 11/99/19 13/100/19 15/101/19 66/102/19 70/103/19 63/104/19 54/105/19 53/106/19 52/107/19 55/108/19 50/109/19 51/110/19
f 51/111/20 38/112/20 39/113/20 49/114/20
f 50/115/21 48/116/21 38/112/21 51/111/21
f 55/117/22 42/118/22 48/116/22 50/115/22
f 52/119/23 44/120/23 42/118/23 55/117/23
f 43/121/24 44/120/24 52/119/24 53/122/24
f 46/123/25 43/121/25 53/122/25 54/124/25
f 45/125/26 46/123/26 54/124/26 63/126/26
f 45/125/27 63/126/27 70/127/27 69/128/27
f 72/129/28 56/130/28 40/131/28 71/132/28
f 58/133/29 41/134/29 40/131/29 56/130/29
f 57/135/30 47/136/30 41/134/30 58/133/30
f 62/137/31 33/138/31 47/136/31 57/135/31
f 59/139/32 35/140/32 33/138/32 62/137/32
f 61/141/33 34/142/33 35/140/33 59/139/33
f 60/143/34 37/144/34 34/142/34 61/141/34
f 64/145/35 36/146/35 37/144/35 60/143/35
f 49/147/36 39/148/36 36/146/36 64/145/36
f 67/149/37 68/150/37 72/151/37 71/152/37
f 69/153/37 70/154/37 66/155/37 65/156/37
