# Blender v3.2.1 OBJ File: 'hoobithouse1.blend'
# www.blender.org
mtllib parede porta.mtl
o parede_da_porta_Cylinder.002
v 0.000000 7.262395 -10.177743
v 0.000000 7.262395 -9.391288
v 1.415006 7.122889 -10.177743
v 1.415006 7.122889 -9.391288
v 2.775634 6.709734 -10.177743
v 2.775634 6.709734 -9.391288
v 4.029596 6.038806 -10.177743
v 4.029596 6.038806 -9.391288
v 5.128703 5.135890 -10.177743
v 5.128703 5.135890 -9.391288
v 6.030716 4.035683 -10.177743
v 6.030716 4.035683 -9.391288
v 6.700973 2.780466 -10.177743
v 6.700973 2.780466 -9.391288
v 7.113715 1.418476 -10.177743
v 7.113715 1.418476 -9.391288
v -7.253081 0.002054 -10.177743
v -7.253081 0.002054 -9.391288
v -7.113715 1.418477 -10.177743
v -7.113715 1.418477 -9.391288
v -6.700973 2.780468 -10.177743
v -6.700973 2.780468 -9.391288
v -6.030717 4.035682 -10.177743
v -6.030717 4.035682 -9.391288
v -5.128704 5.135890 -10.177743
v -5.128704 5.135890 -9.391288
v -4.029597 6.038806 -10.177743
v -4.029597 6.038806 -9.391288
v -2.775634 6.709734 -10.177743
v -2.775634 6.709734 -9.391288
v -1.415005 7.122890 -10.177743
v -1.415005 7.122890 -9.391288
v 7.253081 0.002054 -9.391288
v 7.253081 0.002054 -10.177743
v -7.253081 0.002054 -9.391288
v -7.253081 0.002054 -10.177743
v -1.494935 0.380203 -9.391288
v -1.029729 0.131545 -9.391288
v -0.602854 0.002054 -9.391288
v 0.602854 0.002054 -9.391288
v 1.029729 0.131545 -9.391288
v 1.902691 0.714840 -9.391288
v 1.494935 0.380203 -9.391288
v -2.237328 1.122596 -9.391288
v -1.902691 0.714840 -9.391288
v 2.690812 2.617531 -9.391288
v 2.485986 1.587802 -9.391288
v 2.639109 2.092580 -9.391288
v 2.237329 1.122596 -9.391288
v -2.639109 2.092580 -9.391288
v -2.485986 1.587802 -9.391288
v 2.639109 3.142483 -9.391288
v 0.000000 5.308343 -9.391288
v 1.029729 5.103517 -9.391288
v 0.524951 5.256640 -9.391288
v -2.690812 2.617531 -9.391288
v -2.639109 3.142483 -9.391288
v -2.485986 3.647261 -9.391288
v -2.237329 4.112466 -9.391288
v -1.902692 4.520222 -9.391288
v -1.494935 4.854859 -9.391288
v -1.029729 5.103518 -9.391288
v -0.524951 5.256640 -9.391288
v 1.902691 4.520222 -9.391288
v 2.485986 3.647260 -9.391288
v 2.237329 4.112466 -9.391288
v 1.494935 4.854859 -9.391288
v -1.494935 0.380203 -10.177743
v -1.029729 0.131545 -10.177743
v -0.602854 0.002054 -10.177743
v 0.602854 0.002054 -10.177743
v 1.029729 0.131545 -10.177743
v 1.902691 0.714840 -10.177743
v 1.494935 0.380203 -10.177743
v -2.237328 1.122596 -10.177743
v -1.902691 0.714840 -10.177743
v 2.237329 1.122596 -10.177743
v -2.485986 1.587802 -10.177743
v 2.485986 1.587802 -10.177743
v 2.639109 2.092580 -10.177743
v -2.690812 2.617531 -10.177743
v -2.639109 2.092580 -10.177743
v 2.690812 2.617531 -10.177743
v -2.639109 3.142483 -10.177743
v -2.485986 3.647261 -10.177743
v -2.237329 4.112466 -10.177743
v -1.902692 4.520222 -10.177743
v -1.494935 4.854859 -10.177743
v -1.029729 5.103518 -10.177743
v -0.524951 5.256640 -10.177743
v 0.000000 5.308343 -10.177743
v 0.524951 5.256640 -10.177743
v 1.029729 5.103517 -10.177743
v 1.494935 4.854859 -10.177743
v 2.237329 4.112466 -10.177743
v 2.639109 3.142483 -10.177743
v 2.485986 3.647260 -10.177743
v 1.902691 4.520222 -10.177743
vt 1.000000 0.500000
vt 1.000000 1.000000
vt 0.968750 1.000000
vt 0.968750 0.500000
vt 0.937500 1.000000
vt 0.937500 0.500000
vt 0.906250 1.000000
vt 0.906250 0.500000
vt 0.875000 1.000000
vt 0.875000 0.500000
vt 0.843750 1.000000
vt 0.843750 0.500000
vt 0.812500 1.000000
vt 0.812500 0.500000
vt 0.781250 1.000000
vt 0.781250 0.500000
vt 0.750000 1.000000
vt 0.750000 0.500000
vt 0.250000 1.000000
vt 0.250000 1.000000
vt 0.250000 0.500000
vt 0.250000 0.500000
vt 0.218750 1.000000
vt 0.218750 0.500000
vt 0.187500 1.000000
vt 0.187500 0.500000
vt 0.156250 1.000000
vt 0.156250 0.500000
vt 0.125000 1.000000
vt 0.125000 0.500000
vt 0.093750 1.000000
vt 0.093750 0.500000
vt 0.062500 1.000000
vt 0.062500 0.500000
vt 0.449553 0.383337
vt 0.419706 0.419706
vt 0.383337 0.449553
vt 0.341844 0.471731
vt 0.296822 0.485388
vt 0.250000 0.490000
vt 0.203178 0.485388
vt 0.158156 0.471731
vt 0.116663 0.449553
vt 0.080294 0.419706
vt 0.050447 0.383337
vt 0.028269 0.341844
vt 0.014612 0.296822
vt 0.010000 0.250000
vt 0.010000 0.250000
vt 0.230052 0.250000
vt 0.215927 0.254281
vt 0.200534 0.262500
vt 0.187041 0.273562
vt 0.175968 0.287041
vt 0.167740 0.302419
vt 0.162674 0.319105
vt 0.160963 0.336458
vt 0.162674 0.353811
vt 0.167740 0.370497
vt 0.175968 0.385875
vt 0.187041 0.399354
vt 0.200534 0.410416
vt 0.215927 0.418636
vt 0.232630 0.423697
vt 0.250000 0.425406
vt 0.267370 0.423697
vt 0.284073 0.418635
vt 0.299466 0.410416
vt 0.312959 0.399354
vt 0.324032 0.385875
vt 0.332260 0.370497
vt 0.337326 0.353811
vt 0.339037 0.336458
vt 0.337327 0.319105
vt 0.332260 0.302419
vt 0.324032 0.287041
vt 0.312959 0.273562
vt 0.299466 0.262500
vt 0.284073 0.254281
vt 0.269948 0.250000
vt 0.490000 0.250000
vt 0.485388 0.296822
vt 0.471731 0.341844
vt 0.031250 1.000000
vt 0.031250 0.500000
vt 0.000000 1.000000
vt 0.000000 0.500000
vt 0.510000 0.250000
vt 0.514612 0.296822
vt 0.528269 0.341844
vt 0.550447 0.383337
vt 0.580294 0.419706
vt 0.616663 0.449553
vt 0.658156 0.471731
vt 0.703178 0.485388
vt 0.750000 0.490000
vt 0.796822 0.485388
vt 0.841844 0.471731
vt 0.883337 0.449553
vt 0.919706 0.419706
vt 0.949553 0.383337
vt 0.971731 0.341844
vt 0.985388 0.296822
vt 0.990000 0.250000
vt 0.769948 0.250000
vt 0.784073 0.254281
vt 0.799466 0.262500
vt 0.812959 0.273562
vt 0.824032 0.287041
vt 0.832260 0.302419
vt 0.837327 0.319105
vt 0.839037 0.336458
vt 0.837326 0.353811
vt 0.832260 0.370497
vt 0.824032 0.385875
vt 0.812959 0.399354
vt 0.799466 0.410416
vt 0.784073 0.418636
vt 0.767370 0.423697
vt 0.750000 0.425406
vt 0.732630 0.423697
vt 0.715927 0.418635
vt 0.700534 0.410416
vt 0.687041 0.399354
vt 0.675968 0.385875
vt 0.667740 0.370497
vt 0.662673 0.353811
vt 0.660963 0.336458
vt 0.662674 0.319105
vt 0.667740 0.302419
vt 0.675968 0.287041
vt 0.687041 0.273562
vt 0.700534 0.262500
vt 0.715927 0.254281
vt 0.730052 0.250000
vt 0.510000 0.250000
vt 0.636017 0.500000
vt 0.636017 0.500000
vt 0.740526 0.500000
vt 0.740526 0.500000
vt 0.863983 0.500000
vt 0.863983 0.500000
vt 0.759474 0.500000
vt 0.759474 0.500000
vt 0.968750 0.561157
vt 0.968750 0.938843
vt 1.000000 0.938843
vt 1.000000 0.561157
vt 0.937500 0.561157
vt 0.937500 0.938843
vt 0.906250 0.561157
vt 0.906250 0.938843
vt 0.875000 0.561157
vt 0.875000 0.938843
vt 0.843750 0.938843
vt 0.843750 0.561157
vt 0.812500 0.938843
vt 0.812500 0.561157
vt 0.781250 0.938843
vt 0.781250 0.561157
vt 0.750000 0.938843
vt 0.750000 0.561157
vt 0.718750 0.938843
vt 0.718750 0.561157
vt 0.687500 0.938843
vt 0.687500 0.561157
vt 0.656250 0.938843
vt 0.656250 0.561157
vt 0.625000 0.938843
vt 0.625000 0.561157
vt 0.593750 0.938843
vt 0.593750 0.561157
vt 0.562500 0.938843
vt 0.562500 0.561157
vt 0.536073 0.938843
vt 0.536073 0.561157
vt 0.463927 0.561158
vt 0.437500 0.561157
vt 0.437500 0.938843
vt 0.463927 0.938843
vt 0.406250 0.938843
vt 0.406250 0.561157
vt 0.375000 0.938843
vt 0.375000 0.561157
vt 0.343750 0.561157
vt 0.343750 0.938843
vt 0.312500 0.561157
vt 0.312500 0.938843
vt 0.281250 0.561157
vt 0.281250 0.938843
vt 0.250000 0.561157
vt 0.250000 0.938843
vt 0.218750 0.561157
vt 0.218750 0.938843
vt 0.187500 0.561157
vt 0.187500 0.938843
vt 0.156250 0.561157
vt 0.156250 0.938843
vt 0.125000 0.561157
vt 0.125000 0.938843
vt 0.093750 0.561157
vt 0.093750 0.938843
vt 0.062500 0.561157
vt 0.062500 0.938843
vt 0.031250 0.561157
vt 0.031250 0.938843
vt 0.000000 0.561157
vt 0.000000 0.938843
vn 0.0981 0.9952 0.0000
vn 0.2906 0.9569 0.0000
vn 0.4718 0.8817 0.0000
vn 0.6348 0.7727 0.0000
vn 0.7733 0.6340 0.0000
vn 0.8821 0.4710 0.0000
vn 0.9570 0.2900 0.0000
vn 0.9952 0.0979 0.0000
vn -1.0000 0.0000 0.0000
vn -0.9952 0.0979 0.0000
vn -0.9570 0.2900 0.0000
vn -0.8821 0.4710 0.0000
vn -0.7733 0.6340 0.0000
vn -0.6348 0.7727 0.0000
vn -0.4718 0.8817 0.0000
vn 0.0000 0.0000 1.0000
vn -0.2906 0.9569 0.0000
vn -0.0981 0.9952 0.0000
vn -0.0000 0.0000 -1.0000
vn 0.0000 -1.0000 -0.0000
vn -0.0980 -0.9952 0.0000
vn -0.2903 -0.9569 0.0000
vn -0.4714 -0.8819 0.0000
vn -0.6344 -0.7730 0.0000
vn -0.7730 -0.6344 0.0000
vn -0.8819 -0.4714 0.0000
vn -0.9569 -0.2903 0.0000
vn -0.9952 -0.0980 0.0000
vn -0.9952 0.0980 0.0000
vn -0.9569 0.2903 0.0000
vn -0.8819 0.4714 0.0000
vn -0.7730 0.6344 0.0000
vn -0.6344 0.7730 0.0000
vn -0.4714 0.8819 0.0000
vn -0.2903 0.9569 0.0000
vn 0.2903 0.9569 0.0000
vn 0.4714 0.8819 0.0000
vn 0.6344 0.7730 0.0000
vn 0.7730 0.6344 0.0000
vn 0.8819 0.4714 0.0000
vn 0.9569 0.2903 0.0000
vn 0.9952 0.0980 0.0000
vn 0.9952 -0.0980 0.0000
vn 0.9569 -0.2903 0.0000
vn 0.8819 -0.4714 0.0000
vn 0.7730 -0.6344 0.0000
vn 0.6344 -0.7730 0.0000
vn 0.4714 -0.8819 0.0000
vn 0.2903 -0.9569 0.0000
vn 0.0980 -0.9952 0.0000
usemtl (null)
s off
f 1/1/1 2/2/1 4/3/1 3/4/1
f 3/4/2 4/3/2 6/5/2 5/6/2
f 5/6/3 6/5/3 8/7/3 7/8/3
f 7/8/4 8/7/4 10/9/4 9/10/4
f 9/10/5 10/9/5 12/11/5 11/12/5
f 11/12/6 12/11/6 14/13/6 13/14/6
f 13/14/7 14/13/7 16/15/7 15/16/7
f 15/16/8 16/15/8 33/17/8 34/18/8
f 35/19/9 18/20/9 17/21/9 36/22/9
f 17/21/10 18/20/10 20/23/10 19/24/10
f 19/24/11 20/23/11 22/25/11 21/26/11
f 21/26/12 22/25/12 24/27/12 23/28/12
f 23/28/13 24/27/13 26/29/13 25/30/13
f 25/30/14 26/29/14 28/31/14 27/32/14
f 27/32/15 28/31/15 30/33/15 29/34/15
f 12/35/16 10/36/16 8/37/16 6/38/16 4/39/16 2/40/16 32/41/16 30/42/16 28/43/16 26/44/16 24/45/16 22/46/16 20/47/16 18/48/16 35/49/16 39/50/16 38/51/16 37/52/16 45/53/16 44/54/16 51/55/16 50/56/16 56/57/16 57/58/16 58/59/16 59/60/16 60/61/16 61/62/16 62/63/16 63/64/16 53/65/16 55/66/16 54/67/16 67/68/16 64/69/16 66/70/16 65/71/16 52/72/16 46/73/16 48/74/16 47/75/16 49/76/16 42/77/16 43/78/16 41/79/16 40/80/16 33/81/16 16/82/16 14/83/16
f 29/34/17 30/33/17 32/84/17 31/85/17
f 31/85/18 32/84/18 2/86/18 1/87/18
f 17/88/19 19/89/19 21/90/19 23/91/19 25/92/19 27/93/19 29/94/19 31/95/19 1/96/19 3/97/19 5/98/19 7/99/19 9/100/19 11/101/19 13/102/19 15/103/19 34/104/19 71/105/19 72/106/19 74/107/19 73/108/19 77/109/19 79/110/19 80/111/19 83/112/19 96/113/19 97/114/19 95/115/19 98/116/19 94/117/19 93/118/19 92/119/19 91/120/19 90/121/19 89/122/19 88/123/19 87/124/19 86/125/19 85/126/19 84/127/19 81/128/19 82/129/19 78/130/19 75/131/19 76/132/19 68/133/19 69/134/19 70/135/19 36/136/19
f 34/137/20 33/138/20 40/139/20 71/140/20
f 35/141/20 36/142/20 70/143/20 39/144/20
f 92/145/21 55/146/21 53/147/21 91/148/21
f 93/149/22 54/150/22 55/146/22 92/145/22
f 94/151/23 67/152/23 54/150/23 93/149/23
f 98/153/24 64/154/24 67/152/24 94/151/24
f 66/155/25 64/154/25 98/153/25 95/156/25
f 65/157/26 66/155/26 95/156/26 97/158/26
f 52/159/27 65/157/27 97/158/27 96/160/27
f 46/161/28 52/159/28 96/160/28 83/162/28
f 48/163/29 46/161/29 83/162/29 80/164/29
f 47/165/30 48/163/30 80/164/30 79/166/30
f 49/167/31 47/165/31 79/166/31 77/168/31
f 42/169/32 49/167/32 77/168/32 73/170/32
f 43/171/33 42/169/33 73/170/33 74/172/33
f 41/173/34 43/171/34 74/172/34 72/174/34
f 40/175/35 41/173/35 72/174/35 71/176/35
f 70/177/36 69/178/36 38/179/36 39/180/36
f 37/181/37 38/179/37 69/178/37 68/182/37
f 45/183/38 37/181/38 68/182/38 76/184/38
f 75/185/39 44/186/39 45/183/39 76/184/39
f 78/187/40 51/188/40 44/186/40 75/185/40
f 82/189/41 50/190/41 51/188/41 78/187/41
f 81/191/42 56/192/42 50/190/42 82/189/42
f 84/193/43 57/194/43 56/192/43 81/191/43
f 85/195/44 58/196/44 57/194/44 84/193/44
f 86/197/45 59/198/45 58/196/45 85/195/45
f 87/199/46 60/200/46 59/198/46 86/197/46
f 88/201/47 61/202/47 60/200/47 87/199/47
f 89/203/48 62/204/48 61/202/48 88/201/48
f 90/205/49 63/206/49 62/204/49 89/203/49
f 91/207/50 53/208/50 63/206/50 90/205/50
