# Blender v3.2.1 OBJ File: 'conjunto cadeira e mesa.blend'
# www.blender.org
mtllib mesa jantar.mtl
o mesa_Cube.005
v -0.055314 0.769698 1.042094
v -0.055314 0.880327 1.042094
v -0.055314 0.769698 -1.042094
v -0.055314 0.880327 -1.042094
v 0.055314 0.769698 1.042094
v 0.055314 0.880327 1.042094
v 0.055314 0.769698 -1.042094
v 0.055314 0.880327 -1.042094
v -0.033223 0.714763 1.042094
v -0.033223 0.714763 -1.042094
v 0.033223 0.714763 1.042094
v 0.033223 0.714763 -1.042094
v -0.033223 0.345294 1.042094
v -0.033223 0.345294 -1.042094
v 0.033223 0.345294 1.042094
v 0.033223 0.345294 -1.042094
v -0.055314 0.769698 -0.868412
v -0.055314 0.769698 -0.694729
v -0.055314 0.769698 -0.521047
v -0.055314 0.769698 -0.347365
v -0.055314 0.769698 -0.173682
v -0.055314 0.769698 0.000000
v -0.055314 0.769698 0.173682
v -0.055314 0.769698 0.347365
v -0.055314 0.769698 0.521047
v -0.055314 0.769698 0.694729
v -0.055314 0.769698 0.868412
v -0.055314 0.880327 0.868412
v -0.055314 0.880327 0.694729
v -0.055314 0.880327 0.521047
v -0.055314 0.880327 0.347365
v -0.055314 0.880327 0.173682
v -0.055314 0.880327 -0.000000
v -0.055314 0.880327 -0.173682
v -0.055314 0.880327 -0.347365
v -0.055314 0.880327 -0.521047
v -0.055314 0.880327 -0.694729
v -0.055314 0.880327 -0.868412
v 0.055314 0.769698 0.868412
v 0.055314 0.769698 0.694729
v 0.055314 0.769698 0.521047
v 0.055314 0.769698 0.347365
v 0.055314 0.769698 0.173682
v 0.055314 0.769698 -0.000000
v 0.055314 0.769698 -0.173682
v 0.055314 0.769698 -0.347365
v 0.055314 0.769698 -0.521047
v 0.055314 0.769698 -0.694729
v 0.055314 0.769698 -0.868412
v 0.055314 0.880327 -0.868412
v 0.055314 0.880327 -0.694729
v 0.055314 0.880327 -0.521047
v 0.055314 0.880327 -0.347365
v 0.055314 0.880327 -0.173682
v 0.055314 0.880327 0.000000
v 0.055314 0.880327 0.173682
v 0.055314 0.880327 0.347365
v 0.055314 0.880327 0.521047
v 0.055314 0.880327 0.694729
v 0.055314 0.880327 0.868412
v -0.033223 0.714763 -0.868412
v -0.033223 0.714763 -0.694729
v -0.033223 0.714763 -0.521047
v -0.033223 0.714763 -0.347365
v -0.033223 0.714763 -0.173682
v -0.033223 0.714763 0.000000
v -0.033223 0.714763 0.173682
v -0.033223 0.714763 0.347365
v -0.033223 0.714763 0.521047
v -0.033223 0.714763 0.694729
v -0.033223 0.714763 0.868412
v 0.033223 0.714763 0.868412
v 0.033223 0.714763 0.694729
v 0.033223 0.714763 0.521047
v 0.033223 0.714763 0.347365
v 0.033223 0.714763 0.173682
v 0.033223 0.714763 -0.000000
v 0.033223 0.714763 -0.173682
v 0.033223 0.714763 -0.347365
v 0.033223 0.714763 -0.521047
v 0.033223 0.714763 -0.694729
v 0.033223 0.714763 -0.868412
v -0.033223 0.445010 -0.868412
v -0.033223 0.453086 -0.694729
v -0.033223 0.481270 -0.521047
v -0.033223 0.536814 -0.347365
v -0.033223 0.610653 -0.173682
v -0.033223 0.623838 0.000000
v -0.033223 0.610653 0.173682
v -0.033223 0.536814 0.347365
v -0.033223 0.481270 0.521047
v -0.033223 0.453086 0.694729
v -0.033223 0.445010 0.868412
v 0.033223 0.445010 0.868412
v 0.033223 0.453086 0.694729
v 0.033223 0.481270 0.521047
v 0.033223 0.536814 0.347365
v 0.033223 0.610653 0.173682
v 0.033223 0.623838 -0.000000
v 0.033223 0.610653 -0.173682
v 0.033223 0.536814 -0.347365
v 0.033223 0.481270 -0.521047
v 0.033223 0.453086 -0.694729
v 0.033223 0.445010 -0.868412
v -1.000000 0.875017 1.990727
v -1.000000 0.949558 1.990727
v -1.000000 0.875017 -1.990727
v -1.000000 0.949558 -1.990727
v 1.000000 0.875017 1.990727
v 1.000000 0.949558 1.990727
v 1.000000 0.875017 -1.990727
v 1.000000 0.949558 -1.990727
v -0.541732 0.291823 -1.031016
v -0.697650 0.702266 -1.031016
v -0.541732 0.291823 -1.177704
v -0.697650 0.702266 -1.177704
v 0.541732 0.291823 -1.031016
v 0.697650 0.702266 -1.031016
v 0.541732 0.291823 -1.177704
v 0.697650 0.702266 -1.177704
v -0.565205 0.201634 -1.031016
v -0.565205 0.201634 -1.177704
v 0.565205 0.201634 -1.031016
v 0.565205 0.201634 -1.177704
v -0.622123 0.097205 -1.031016
v -0.622123 0.097205 -1.177704
v 0.622123 0.097205 -1.031016
v 0.622123 0.097205 -1.177704
v -0.665611 -0.000104 -1.031016
v -0.665611 -0.000104 -1.177704
v 0.665611 -0.000104 -1.031016
v 0.665611 -0.000104 -1.177704
v -0.898009 0.775841 -1.031016
v -0.898009 0.775841 -1.177704
v 0.898009 0.775841 -1.031016
v 0.898009 0.775841 -1.177704
v -0.965174 0.818562 -1.031016
v -0.965174 0.818562 -1.177704
v 0.965174 0.818562 -1.031016
v 0.965174 0.818562 -1.177704
v -0.998133 0.847043 -1.031016
v -0.998133 0.847043 -1.177704
v 0.998133 0.847043 -1.031016
v 0.998133 0.847043 -1.177704
v -1.011393 0.894511 -1.031016
v -1.011393 0.894511 -1.177704
v 1.011393 0.894511 -1.031016
v 1.011393 0.894511 -1.177704
v -1.019390 0.920618 -1.031016
v -1.019390 0.920618 -1.177704
v 1.019390 0.920618 -1.031016
v 1.019390 0.920618 -1.177704
v -0.541732 0.291823 1.177704
v -0.697650 0.702266 1.177704
v -0.541732 0.291823 1.031016
v -0.697650 0.702266 1.031016
v 0.541732 0.291823 1.177704
v 0.697650 0.702266 1.177704
v 0.541732 0.291823 1.031016
v 0.697650 0.702266 1.031016
v -0.565205 0.201634 1.177704
v -0.565205 0.201634 1.031016
v 0.565205 0.201634 1.177704
v 0.565205 0.201634 1.031016
v -0.622123 0.097205 1.177704
v -0.622123 0.097205 1.031016
v 0.622123 0.097205 1.177704
v 0.622123 0.097205 1.031016
v -0.665611 -0.000104 1.177704
v -0.665611 -0.000104 1.031016
v 0.665611 -0.000104 1.177704
v 0.665611 -0.000104 1.031016
v -0.898009 0.775841 1.177704
v -0.898009 0.775841 1.031016
v 0.898009 0.775841 1.177704
v 0.898009 0.775841 1.031016
v -0.965174 0.818562 1.177704
v -0.965174 0.818562 1.031016
v 0.965174 0.818562 1.177704
v 0.965174 0.818562 1.031016
v -0.998133 0.847043 1.177704
v -0.998133 0.847043 1.031016
v 0.998133 0.847043 1.177704
v 0.998133 0.847043 1.031016
v -1.011393 0.894511 1.177704
v -1.011393 0.894511 1.031016
v 1.011393 0.894511 1.177704
v 1.011393 0.894511 1.031016
v -1.019390 0.920618 1.177704
v -1.019390 0.920618 1.031016
v 1.019390 0.920618 1.177704
v 1.019390 0.920618 1.031016
vt 0.375000 0.229167
vt 0.625000 0.229167
vt 0.625000 0.250000
vt 0.375000 0.250000
vt 0.625000 0.500000
vt 0.375000 0.500000
vt 0.375000 0.729167
vt 0.625000 0.729167
vt 0.625000 0.750000
vt 0.375000 0.750000
vt 0.625000 1.000000
vt 0.375000 1.000000
vt 0.375000 1.000000
vt 0.375000 0.750000
vt 0.875000 0.729167
vt 0.875000 0.750000
vt 0.375000 0.729167
vt 0.375000 0.750000
vt 0.375000 0.729167
vt 0.375000 0.500000
vt 0.375000 0.250000
vt 0.375000 0.229167
vt 0.125000 0.729167
vt 0.125000 0.750000
vt 0.375000 0.250000
vt 0.375000 0.229167
vt 0.375000 1.000000
vt 0.375000 0.500000
vt 0.375000 0.000000
vt 0.375000 0.020833
vt 0.375000 0.020833
vt 0.375000 0.000000
vt 0.375000 0.041667
vt 0.375000 0.041667
vt 0.375000 0.062500
vt 0.375000 0.062500
vt 0.375000 0.083333
vt 0.375000 0.083333
vt 0.375000 0.104167
vt 0.375000 0.104167
vt 0.375000 0.125000
vt 0.375000 0.125000
vt 0.375000 0.145833
vt 0.375000 0.145833
vt 0.375000 0.166667
vt 0.375000 0.166667
vt 0.375000 0.187500
vt 0.375000 0.187500
vt 0.375000 0.208333
vt 0.375000 0.208333
vt 0.125000 0.500000
vt 0.375000 0.520833
vt 0.125000 0.520833
vt 0.375000 0.541667
vt 0.125000 0.541667
vt 0.375000 0.562500
vt 0.125000 0.562500
vt 0.375000 0.583333
vt 0.125000 0.583333
vt 0.375000 0.604167
vt 0.125000 0.604167
vt 0.375000 0.625000
vt 0.125000 0.625000
vt 0.375000 0.645833
vt 0.125000 0.645833
vt 0.375000 0.666667
vt 0.125000 0.666667
vt 0.375000 0.687500
vt 0.125000 0.687500
vt 0.375000 0.708333
vt 0.125000 0.708333
vt 0.375000 0.520833
vt 0.375000 0.520833
vt 0.375000 0.541667
vt 0.375000 0.541667
vt 0.375000 0.562500
vt 0.375000 0.562500
vt 0.375000 0.583333
vt 0.375000 0.583333
vt 0.375000 0.604167
vt 0.375000 0.604167
vt 0.375000 0.625000
vt 0.375000 0.625000
vt 0.375000 0.645833
vt 0.375000 0.645833
vt 0.375000 0.666667
vt 0.375000 0.666667
vt 0.375000 0.687500
vt 0.375000 0.687500
vt 0.375000 0.708333
vt 0.375000 0.708333
vt 0.375000 0.000000
vt 0.375000 0.020833
vt 0.375000 0.041667
vt 0.375000 0.062500
vt 0.375000 0.083333
vt 0.375000 0.104167
vt 0.375000 0.125000
vt 0.375000 0.145833
vt 0.375000 0.166667
vt 0.375000 0.187500
vt 0.375000 0.208333
vt 0.875000 0.500000
vt 0.875000 0.520833
vt 0.625000 0.520833
vt 0.875000 0.541667
vt 0.625000 0.541667
vt 0.875000 0.562500
vt 0.625000 0.562500
vt 0.875000 0.583333
vt 0.625000 0.583333
vt 0.875000 0.604167
vt 0.625000 0.604167
vt 0.875000 0.625000
vt 0.625000 0.625000
vt 0.875000 0.645833
vt 0.625000 0.645833
vt 0.875000 0.666667
vt 0.625000 0.666667
vt 0.875000 0.687500
vt 0.625000 0.687500
vt 0.875000 0.708333
vt 0.625000 0.708333
vt 0.625000 0.000000
vt 0.625000 0.020833
vt 0.625000 0.041667
vt 0.625000 0.062500
vt 0.625000 0.083333
vt 0.625000 0.104167
vt 0.625000 0.125000
vt 0.625000 0.145833
vt 0.625000 0.166667
vt 0.625000 0.187500
vt 0.625000 0.208333
vt 0.375000 0.000000
vt 0.625000 0.000000
vt 0.625000 0.250000
vt 0.375000 0.250000
vt 0.625000 0.500000
vt 0.375000 0.500000
vt 0.625000 0.750000
vt 0.375000 0.750000
vt 0.625000 1.000000
vt 0.375000 1.000000
vt 0.125000 0.500000
vt 0.125000 0.750000
vt 0.875000 0.500000
vt 0.875000 0.750000
vt 0.375000 0.000000
vt 0.625000 0.000000
vt 0.625000 0.250000
vt 0.375000 0.250000
vt 0.625000 0.500000
vt 0.375000 0.500000
vt 0.625000 0.750000
vt 0.375000 0.750000
vt 0.625000 1.000000
vt 0.375000 1.000000
vt 0.375000 0.750000
vt 0.375000 0.250000
vt 0.625000 0.250000
vt 0.625000 0.500000
vt 0.375000 1.000000
vt 0.375000 1.000000
vt 0.375000 0.750000
vt 0.375000 0.500000
vt 0.375000 0.000000
vt 0.375000 0.000000
vt 0.375000 0.250000
vt 0.375000 0.250000
vt 0.375000 0.000000
vt 0.375000 0.500000
vt 0.125000 0.500000
vt 0.375000 0.500000
vt 0.375000 0.750000
vt 0.125000 0.750000
vt 0.375000 1.000000
vt 0.625000 0.250000
vt 0.625000 0.500000
vt 0.625000 0.750000
vt 0.625000 0.000000
vt 0.625000 1.000000
vt 0.625000 1.000000
vt 0.625000 0.750000
vt 0.625000 0.750000
vt 0.625000 1.000000
vt 0.625000 0.000000
vt 0.625000 0.750000
vt 0.625000 1.000000
vt 0.625000 0.250000
vt 0.625000 0.500000
vt 0.625000 0.000000
vt 0.625000 0.750000
vt 0.625000 1.000000
vt 0.625000 0.250000
vt 0.625000 0.500000
vt 0.625000 0.000000
vt 0.625000 0.500000
vt 0.875000 0.500000
vt 0.875000 0.750000
vt 0.625000 0.250000
vt 0.625000 0.000000
vt 0.375000 0.250000
vt 0.625000 0.250000
vt 0.625000 0.500000
vt 0.375000 0.500000
vt 0.375000 0.750000
vt 0.625000 0.750000
vt 0.625000 1.000000
vt 0.375000 1.000000
vt 0.375000 0.750000
vt 0.375000 0.250000
vt 0.625000 0.250000
vt 0.625000 0.500000
vt 0.625000 0.000000
vt 0.375000 1.000000
vt 0.375000 1.000000
vt 0.375000 0.750000
vt 0.375000 0.500000
vt 0.375000 0.000000
vt 0.375000 0.000000
vt 0.375000 0.000000
vt 0.375000 0.250000
vt 0.375000 0.250000
vt 0.375000 0.000000
vt 0.375000 0.500000
vt 0.125000 0.500000
vt 0.375000 0.500000
vt 0.375000 0.750000
vt 0.125000 0.750000
vt 0.375000 1.000000
vt 0.625000 0.250000
vt 0.625000 0.500000
vt 0.625000 0.750000
vt 0.625000 0.000000
vt 0.625000 1.000000
vt 0.625000 1.000000
vt 0.625000 0.750000
vt 0.625000 0.750000
vt 0.625000 1.000000
vt 0.625000 0.000000
vt 0.625000 0.750000
vt 0.625000 1.000000
vt 0.625000 0.250000
vt 0.625000 0.500000
vt 0.625000 0.000000
vt 0.625000 0.750000
vt 0.625000 1.000000
vt 0.625000 0.250000
vt 0.625000 0.500000
vt 0.625000 0.000000
vt 0.625000 0.500000
vt 0.875000 0.500000
vt 0.875000 0.750000
vt 0.625000 0.250000
vt 0.625000 0.000000
vn -1.0000 0.0000 0.0000
vn 0.0000 0.0000 -1.0000
vn 1.0000 0.0000 0.0000
vn 0.0000 0.0000 1.0000
vn 0.0000 1.0000 0.0000
vn -0.9278 -0.3731 0.0000
vn 0.9278 -0.3731 0.0000
vn -0.0000 -0.8672 -0.4979
vn 0.0000 -0.8672 0.4979
vn 0.0000 -0.9989 0.0464
vn 0.0000 -0.9871 0.1602
vn 0.0000 -0.9525 0.3046
vn 0.0000 -0.9203 0.3912
vn 0.0000 -0.9971 0.0757
vn -0.0000 -0.9971 -0.0757
vn -0.0000 -0.9203 -0.3912
vn -0.0000 -0.9525 -0.3046
vn -0.0000 -0.9871 -0.1602
vn -0.0000 -0.9989 -0.0464
vn 0.0000 -1.0000 0.0000
vn -0.9348 -0.3551 0.0000
vn 0.9348 -0.3551 0.0000
vn 0.1314 0.0000 -0.9913
vn -0.9678 0.2519 0.0000
vn 0.9678 0.2519 0.0000
vn -0.9130 0.4080 0.0000
vn 0.1226 0.0000 -0.9925
vn 0.8780 0.4786 0.0000
vn -0.8780 0.4786 0.0000
vn 0.1132 0.0000 -0.9936
vn 0.9130 0.4080 0.0000
vn 0.3447 -0.9387 0.0000
vn 0.0915 0.0000 -0.9958
vn -0.3447 -0.9387 0.0000
vn 0.0785 0.0000 -0.9969
vn 0.5367 -0.8438 0.0000
vn -0.5367 -0.8438 0.0000
vn 0.0745 0.0000 -0.9972
vn 0.6538 -0.7566 0.0000
vn -0.6538 -0.7566 0.0000
vn 0.0728 0.0000 -0.9973
vn 0.9631 -0.2690 0.0000
vn -0.9631 -0.2690 0.0000
vn 0.0720 0.0000 -0.9974
vn 0.9562 -0.2929 0.0000
vn -0.9562 -0.2929 0.0000
usemtl None
s off
f 17/1/1 38/2/1 4/3/1 3/4/1
f 3/4/2 4/3/2 8/5/2 7/6/2
f 39/7/3 60/8/3 6/9/3 5/10/3
f 5/10/4 6/9/4 2/11/4 1/12/4
f 5/10/4 1/12/4 9/13/4 11/14/4
f 60/8/5 28/15/5 2/16/5 6/9/5
f 72/17/3 11/14/3 15/18/3 94/19/3
f 3/4/2 7/6/2 12/20/2 10/21/2
f 17/1/6 3/4/6 10/21/6 61/22/6
f 39/7/7 5/10/7 11/14/7 72/17/7
f 93/23/8 94/19/8 15/18/8 13/24/8
f 61/22/1 10/21/1 14/25/1 83/26/1
f 11/14/4 9/13/4 13/27/4 15/18/4
f 10/21/2 12/20/2 16/28/2 14/25/2
f 9/29/1 71/30/1 93/31/1 13/32/1
f 71/30/1 70/33/1 92/34/1 93/31/1
f 70/33/1 69/35/1 91/36/1 92/34/1
f 69/35/1 68/37/1 90/38/1 91/36/1
f 68/37/1 67/39/1 89/40/1 90/38/1
f 67/39/1 66/41/1 88/42/1 89/40/1
f 66/41/1 65/43/1 87/44/1 88/42/1
f 65/43/1 64/45/1 86/46/1 87/44/1
f 64/45/1 63/47/1 85/48/1 86/46/1
f 63/47/1 62/49/1 84/50/1 85/48/1
f 62/49/1 61/22/1 83/26/1 84/50/1
f 14/51/9 16/28/9 104/52/9 83/53/9
f 83/53/10 104/52/10 103/54/10 84/55/10
f 84/55/11 103/54/11 102/56/11 85/57/11
f 85/57/12 102/56/12 101/58/12 86/59/12
f 86/59/13 101/58/13 100/60/13 87/61/13
f 87/61/14 100/60/14 99/62/14 88/63/14
f 88/63/15 99/62/15 98/64/15 89/65/15
f 89/65/16 98/64/16 97/66/16 90/67/16
f 90/67/17 97/66/17 96/68/17 91/69/17
f 91/69/18 96/68/18 95/70/18 92/71/18
f 92/71/19 95/70/19 94/19/19 93/23/19
f 7/6/7 49/72/7 82/73/7 12/20/7
f 49/72/7 48/74/7 81/75/7 82/73/7
f 48/74/7 47/76/7 80/77/7 81/75/7
f 47/76/7 46/78/7 79/79/7 80/77/7
f 46/78/7 45/80/7 78/81/7 79/79/7
f 45/80/7 44/82/7 77/83/7 78/81/7
f 44/82/7 43/84/7 76/85/7 77/83/7
f 43/84/7 42/86/7 75/87/7 76/85/7
f 42/86/7 41/88/7 74/89/7 75/87/7
f 41/88/7 40/90/7 73/91/7 74/89/7
f 40/90/7 39/7/7 72/17/7 73/91/7
f 1/92/6 27/93/6 71/30/6 9/29/6
f 27/93/6 26/94/6 70/33/6 71/30/6
f 26/94/6 25/95/6 69/35/6 70/33/6
f 25/95/6 24/96/6 68/37/6 69/35/6
f 24/96/6 23/97/6 67/39/6 68/37/6
f 23/97/6 22/98/6 66/41/6 67/39/6
f 22/98/6 21/99/6 65/43/6 66/41/6
f 21/99/6 20/100/6 64/45/6 65/43/6
f 20/100/6 19/101/6 63/47/6 64/45/6
f 19/101/6 18/102/6 62/49/6 63/47/6
f 18/102/6 17/1/6 61/22/6 62/49/6
f 12/20/3 82/73/3 104/52/3 16/28/3
f 82/73/3 81/75/3 103/54/3 104/52/3
f 81/75/3 80/77/3 102/56/3 103/54/3
f 80/77/3 79/79/3 101/58/3 102/56/3
f 79/79/3 78/81/3 100/60/3 101/58/3
f 78/81/3 77/83/3 99/62/3 100/60/3
f 77/83/3 76/85/3 98/64/3 99/62/3
f 76/85/3 75/87/3 97/66/3 98/64/3
f 75/87/3 74/89/3 96/68/3 97/66/3
f 74/89/3 73/91/3 95/70/3 96/68/3
f 73/91/3 72/17/3 94/19/3 95/70/3
f 8/5/5 4/103/5 38/104/5 50/105/5
f 50/105/5 38/104/5 37/106/5 51/107/5
f 51/107/5 37/106/5 36/108/5 52/109/5
f 52/109/5 36/108/5 35/110/5 53/111/5
f 53/111/5 35/110/5 34/112/5 54/113/5
f 54/113/5 34/112/5 33/114/5 55/115/5
f 55/115/5 33/114/5 32/116/5 56/117/5
f 56/117/5 32/116/5 31/118/5 57/119/5
f 57/119/5 31/118/5 30/120/5 58/121/5
f 58/121/5 30/120/5 29/122/5 59/123/5
f 59/123/5 29/122/5 28/15/5 60/8/5
f 7/6/3 8/5/3 50/105/3 49/72/3
f 49/72/3 50/105/3 51/107/3 48/74/3
f 48/74/3 51/107/3 52/109/3 47/76/3
f 47/76/3 52/109/3 53/111/3 46/78/3
f 46/78/3 53/111/3 54/113/3 45/80/3
f 45/80/3 54/113/3 55/115/3 44/82/3
f 44/82/3 55/115/3 56/117/3 43/84/3
f 43/84/3 56/117/3 57/119/3 42/86/3
f 42/86/3 57/119/3 58/121/3 41/88/3
f 41/88/3 58/121/3 59/123/3 40/90/3
f 40/90/3 59/123/3 60/8/3 39/7/3
f 1/92/1 2/124/1 28/125/1 27/93/1
f 27/93/1 28/125/1 29/126/1 26/94/1
f 26/94/1 29/126/1 30/127/1 25/95/1
f 25/95/1 30/127/1 31/128/1 24/96/1
f 24/96/1 31/128/1 32/129/1 23/97/1
f 23/97/1 32/129/1 33/130/1 22/98/1
f 22/98/1 33/130/1 34/131/1 21/99/1
f 21/99/1 34/131/1 35/132/1 20/100/1
f 20/100/1 35/132/1 36/133/1 19/101/1
f 19/101/1 36/133/1 37/134/1 18/102/1
f 18/102/1 37/134/1 38/2/1 17/1/1
f 105/135/1 106/136/1 108/137/1 107/138/1
f 107/138/2 108/137/2 112/139/2 111/140/2
f 111/140/3 112/139/3 110/141/3 109/142/3
f 109/142/4 110/141/4 106/143/4 105/144/4
f 107/145/20 111/140/20 109/142/20 105/146/20
f 112/139/5 108/147/5 106/148/5 110/141/5
f 113/149/21 114/150/21 116/151/21 115/152/21
f 115/152/2 116/151/2 120/153/2 119/154/2
f 119/154/22 120/153/22 118/155/22 117/156/22
f 117/156/4 118/155/4 114/157/4 113/158/4
f 115/152/23 117/156/23 123/159/23 122/160/23
f 120/153/2 116/151/2 134/161/2 136/162/2
f 123/159/4 121/163/4 125/164/4 127/165/4
f 117/156/4 113/158/4 121/163/4 123/159/4
f 115/152/2 119/154/2 124/166/2 122/160/2
f 113/149/24 115/152/24 122/160/24 121/167/24
f 119/154/25 117/156/25 123/159/25 124/166/25
f 125/168/26 126/169/26 130/170/26 129/171/26
f 122/160/2 124/166/2 128/172/2 126/169/2
f 122/160/27 123/159/27 127/165/27 126/169/27
f 124/166/28 123/159/28 127/165/28 128/172/28
f 121/167/29 122/160/29 126/169/29 125/168/29
f 130/173/20 132/174/20 131/175/20 129/176/20
f 127/165/4 125/164/4 129/177/4 131/175/4
f 126/169/2 128/172/2 132/174/2 130/170/2
f 126/169/30 127/165/30 131/175/30 130/170/30
f 128/172/31 127/165/31 131/175/31 132/174/31
f 136/162/2 134/161/2 138/178/2 140/179/2
f 118/155/32 120/153/32 136/162/32 135/180/32
f 118/155/33 116/151/33 134/161/33 135/180/33
f 116/151/34 114/150/34 133/181/34 134/161/34
f 114/157/4 118/155/4 135/180/4 133/182/4
f 137/183/4 139/184/4 143/185/4 141/186/4
f 135/180/35 134/161/35 138/178/35 139/184/35
f 135/180/36 136/162/36 140/179/36 139/184/36
f 134/161/37 133/181/37 137/187/37 138/178/37
f 133/182/4 135/180/4 139/184/4 137/183/4
f 141/186/4 143/185/4 147/188/4 145/189/4
f 140/179/2 138/178/2 142/190/2 144/191/2
f 139/184/38 138/178/38 142/190/38 143/185/38
f 139/184/39 140/179/39 144/191/39 143/185/39
f 138/178/40 137/187/40 141/192/40 142/190/40
f 145/189/4 147/188/4 151/193/4 149/194/4
f 144/191/2 142/190/2 146/195/2 148/196/2
f 143/185/41 142/190/41 146/195/41 147/188/41
f 143/185/42 144/191/42 148/196/42 147/188/42
f 142/190/43 141/192/43 145/197/43 146/195/43
f 152/198/5 150/199/5 149/200/5 151/193/5
f 148/196/2 146/195/2 150/201/2 152/198/2
f 147/188/44 146/195/44 150/201/44 151/193/44
f 147/188/45 148/196/45 152/198/45 151/193/45
f 146/195/46 145/197/46 149/202/46 150/201/46
f 155/203/2 156/204/2 160/205/2 159/206/2
f 157/207/4 158/208/4 154/209/4 153/210/4
f 155/203/23 157/207/23 163/211/23 162/212/23
f 160/205/2 156/204/2 174/213/2 176/214/2
f 155/203/21 153/210/21 154/215/21 156/204/21
f 163/211/4 161/216/4 165/217/4 167/218/4
f 157/207/4 153/210/4 161/216/4 163/211/4
f 155/203/2 159/206/2 164/219/2 162/212/2
f 153/220/24 155/203/24 162/212/24 161/221/24
f 159/206/25 157/207/25 163/211/25 164/219/25
f 165/222/26 166/223/26 170/224/26 169/225/26
f 162/212/2 164/219/2 168/226/2 166/223/2
f 162/212/27 163/211/27 167/218/27 166/223/27
f 164/219/28 163/211/28 167/218/28 168/226/28
f 161/221/29 162/212/29 166/223/29 165/222/29
f 170/227/20 172/228/20 171/229/20 169/230/20
f 167/218/4 165/217/4 169/231/4 171/229/4
f 166/223/2 168/226/2 172/228/2 170/224/2
f 166/223/30 167/218/30 171/229/30 170/224/30
f 168/226/31 167/218/31 171/229/31 172/228/31
f 176/214/2 174/213/2 178/232/2 180/233/2
f 158/208/32 160/205/32 176/214/32 175/234/32
f 158/208/33 156/204/33 174/213/33 175/234/33
f 156/204/34 154/215/34 173/235/34 174/213/34
f 154/209/4 158/208/4 175/234/4 173/236/4
f 177/237/4 179/238/4 183/239/4 181/240/4
f 175/234/35 174/213/35 178/232/35 179/238/35
f 175/234/36 176/214/36 180/233/36 179/238/36
f 174/213/37 173/235/37 177/241/37 178/232/37
f 173/236/4 175/234/4 179/238/4 177/237/4
f 181/240/4 183/239/4 187/242/4 185/243/4
f 180/233/2 178/232/2 182/244/2 184/245/2
f 179/238/38 178/232/38 182/244/38 183/239/38
f 179/238/39 180/233/39 184/245/39 183/239/39
f 178/232/40 177/241/40 181/246/40 182/244/40
f 185/243/4 187/242/4 191/247/4 189/248/4
f 184/245/2 182/244/2 186/249/2 188/250/2
f 183/239/41 182/244/41 186/249/41 187/242/41
f 183/239/42 184/245/42 188/250/42 187/242/42
f 182/244/43 181/246/43 185/251/43 186/249/43
f 192/252/5 190/253/5 189/254/5 191/247/5
f 188/250/2 186/249/2 190/255/2 192/252/2
f 187/242/44 186/249/44 190/255/44 191/247/44
f 187/242/45 188/250/45 192/252/45 191/247/45
f 186/249/46 185/251/46 189/256/46 190/255/46
f 159/206/22 160/205/22 158/208/22 157/207/22
